# xmcd
#
# Track frame offsets: 
#        150
#        14102
#        32709
#        50262
#        67366
#
# Disc length: 1206 seconds
#
# Revision: 0
# Processed by: cddbd v1.5.2PL0 Copyright (c) Steve Scherf et al.
# Submitted via: ExactAudioCopy v0.99pb5
#
DISCID=4604b405
DTITLE=Irina Lunatik - Get Up
DYEAR=2010
DGENRE=Acoustic
TTITLE0=Flip a Coin
TTITLE1=Get Up
TTITLE2=Losing Hold
TTITLE3=I Had a Dream Yesterday
TTITLE4=Thank You
EXTD=
EXTT0=
EXTT1=
EXTT2=
EXTT3=
EXTT4=
PLAYORDER=
